# xmcd CD database file
#
# Track frame offsets:
#	150
#	20479
#	40814
#	61196
#	81576
#	101959
#	122319
#	142700
#	162852
#	183221
#	203571
#	223934
#	244300
#	264711
#	285071
#	305443
#
# Disc length: 4344 seconds
#
# Revision: 2
# Processed by: cddbd v1.5.1PL0 Copyright (c) Steve Scherf et al.
# Submitted via: CDex 1.51
#
DISCID=da10f610
DTITLE=ORIGINS - Collection Emeraude
DYEAR=2000
DGENRE=New Age
TTITLE0=Aurores infinies
TTITLE1=Matin calme
TTITLE2=Harmonies de printemps
TTITLE3=Le jardin des elfes
TTITLE4=Oiseaux de joie
TTITLE5=Résonances d'été
TTITLE6=A l'ombre du sous-bois
TTITLE7=Au-delà du vent
TTITLE8=Mélodies de pluie
TTITLE9=Ruisseaux de cristal
TTITLE10=Le rêve de la mer
TTITLE11=Les chants des îles
TTITLE12=L'émotion des baleines
TTITLE13=Symphonie de glace
TTITLE14=la paix du soir
TTITLE15=Voix de nuit
EXTD=YEAR: 2000
EXTT0=
EXTT1=
EXTT2=
EXTT3=
EXTT4=
EXTT5=
EXTT6=
EXTT7=
EXTT8=
EXTT9=
EXTT10=
EXTT11=
EXTT12=
EXTT13=
EXTT14=
EXTT15=
PLAYORDER=
